# AST/ASF file generated using VICON BodyLanguage
# -----------------------------------------------
:version 1.10
:name VICON
:units
  mass 1.0
  length 0.45
  angle deg
:documentation
   .ast/.asf automatically generated from VICON data using
   VICON BodyBuilder and BodyLanguage model FoxedUp or BRILLIANT.MOD
:root
   order TX TY TZ RX RY RZ
   axis XYZ
   position 0 0 0  
   orientation 0 0 0 
:bonedata
  begin
     id 1 
     name lhipjoint
     direction 0.561001 -0.76473 0.316963 
     length 2.4722 
     axis 0 0 0  XYZ
  end
  begin
     id 2 
     name lfemur
     direction 0.34202 -0.939693 0  
     length 7.59403  
     axis 0 0 20  XYZ
    dof rx ry rz
    limits (-160.0 20.0)
           (-70.0 70.0)
           (-60.0 70.0)
  end
  begin
     id 3 
     name ltibia
     direction 0.34202 -0.939693 0   
     length 7.89655   
     axis 0 0 20   XYZ
    dof rx
    limits (-10.0 170.0)
  end
  begin
     id 4 
     name lfoot
     direction 0.061296 -0.168409 0.98381   
     length 2.73287   
     axis -90 7.62852e-016 20   XYZ
    dof rx rz
    limits (-45.0 90.0)
           (-70.0 20.0)
  end
  begin
     id 5 
     name ltoes
     direction 1.53547e-011 -4.21984e-011 1   
     length 1.37057   
     axis -90 7.62852e-016 20   XYZ
    dof rx
    limits (-90.0 20.0)
  end
  begin
     id 6 
     name rhipjoint
     direction -0.559611 -0.765599 0.317323   
     length 2.46939  
     axis 0 0 0  XYZ 
  end
  begin
     id 7 
     name rfemur
     direction -0.34202 -0.939693 0   
     length 7.53712   
     axis 0 0 -20   XYZ
    dof rx ry rz
    limits (-160.0 20.0)
           (-70.0 70.0)
           (-70.0 60.0)
  end
  begin
     id 8 
     name rtibia
     direction -0.34202 -0.939693 0   
     length 8.12549   
     axis 0 0 -20   XYZ
    dof rx
    limits (-10.0 170.0)
 end
 begin
     id 9 
     name rfoot
     direction -0.066984 -0.184037 0.980634   
     length 2.67541  
     axis -90 -7.62852e-016 -20   XYZ
    dof rx rz
    limits (-45.0 90.0)
           (-20.0 70.0)
  end
  begin
     id 10 
     name rtoes
     direction -1.53549e-011 -4.21786e-011 1   
     length 1.34085   
     axis -90 -7.62852e-016 -20   XYZ
    dof rx
    limits (-90.0 20.0)
  end
  begin
     id 11 
     name lowerback
     direction -0.0522728 0.992594 -0.109658   
     length 2.05633   
     axis 0 0 0   XYZ
    dof rx ry rz
    limits (-20.0 45.0)
           (-30.0 30.0)
           (-30.0 30.0)
  end
  begin
     id 12 
     name upperback
     direction 0.00589338 0.999977 0.00335704   
     length 2.05845   
     axis 0 0 0   XYZ
    dof rx ry rz
    limits (-20.0 45.0)
           (-30.0 30.0)
           (-30.0 30.0)
  end
  begin
     id 13 
     name thorax
     direction 0.0292928 0.998059 0.0549487   
     length 2.09281   
     axis 0 0 0   XYZ
    dof rx ry rz
    limits (-20.0 45.0)
           (-30.0 30.0)
           (-30.0 30.0)
  end
  begin
     id 14 
     name lowerneck
     direction 0.0356368 0.980775 0.191858   
     length 1.84767   
     axis 0 0 0   XYZ
    dof rx ry rz
    limits (-20.0 45.0)
           (-30.0 30.0)
           (-30.0 30.0)
  end
  begin
     id 15 
     name upperneck
     direction -0.0227605 0.98931 -0.14404   
     length 1.89582   
     axis 0 0 0   XYZ
    dof rx ry rz
    limits (-20.0 45.0)
           (-30.0 30.0)
           (-30.0 30.0)
  end
  begin
     id 16
     name head
     direction -0.00932985 0.997511 -0.0698904  
     length 1.90213  
     axis 0 0 0   XYZ
    dof rx ry rz
    limits (-20.0 45.0)
           (-30.0 30.0)
           (-30.0 30.0)
  end
  begin
     id 17 
     name lclavicle
     direction 0.873442 0.479511 0.0846686  
     length 3.41193  
     axis 0 0 0   XYZ
    dof ry rz
    limits (-20.0 10.0)
           (0.0 20.0)
  end
  begin
     id 18 
     name lhumerus
     direction 1 -4.4897e-011 -5.62117e-018   
     length 5.59864   
     axis 180 -30 -90   XYZ
    dof rx ry rz
    limits (-60.0 90.0)
           (-90.0 90.0)
           (-90.0 90.0)
  end
  begin
     id 19
     name lradius
     direction 1 -4.48966e-011 -6.26295e-027   
     length 3.59542   
     axis 180 -30 -90   XYZ
    dof rx
    limits (-10.0 170.0)
  end
  begin
     id 20
     name lwrist
     direction 1 -4.48947e-011 -1.74096e-026   
     length 1.79771   
     axis 1.04567e-014 90 90   XYZ
    dof ry
    limits (-180.0 0.0)
 end
  begin
     id 21 
     name lhand
     direction 1 -4.49085e-011 -3.48469e-026   
     length 0.572014   
     axis 2.22196e-014 90 90   XYZ
    dof rx rz
    limits (-90.0 90.0)
           (-45.0 45.0)
  end
  begin
     id 22 
     name lfingers
     direction 1 -4.48884e-011 -6.96135e-026   
     length 0.461173   
     axis 4.44383e-014 90 90   XYZ
    dof rx
    limits (0.0 90.0)
  end
  begin
     id 23
     name lthumb
     direction 0.707107 -6.34976e-011 0.707107   
     length 0.662154   
     axis -90 45 -5.4397e-014   XYZ
    dof rx rz
    limits (-45.0 45.0)
           (-45.0 45.0)
  end
  begin
     id 24 
     name rclavicle
     direction -0.890242 0.443271 0.104786   
     length 3.46753  
     axis 0 0 0   XYZ 
    dof ry rz
    limits (-10.0 20.0)
           (-20.0 0.0)
  end
  begin
     id 25 
     name rhumerus
     direction -1 -4.48963e-011 -5.41723e-018  
     length 5.8094   
     axis 180 30 90   XYZ
    dof rx ry rz
    limits (-90.0 60.0)
           (-90.0 90.0)
           (-90.0 90.0)
  end
  begin
     id 26 
     name rradius
     direction -1 -4.48958e-011 -6.51059e-027   
     length 3.66953   
     axis 180 30 90   XYZ
    dof rx
    limits (-10.0 170.0)
  end
  begin
     id 27 
     name rwrist
     direction -1 -4.48975e-011 -1.74124e-026   
     length 1.83476   
     axis 1.04567e-014 -90 -90   XYZ
    dof ry
    limits (-180.0 0.0)
  end
  begin
     id 28
     name rhand
     direction -1 -4.49013e-011 -3.48326e-026   
     length 0.57843   
     axis 2.22196e-014 -90 -90   XYZ
    dof rx rz
    limits (-90.0 90.0)
           (-45.0 45.0)
  end
  begin
     id 29
     name rfingers
     direction -1 -4.49023e-011 -6.9669e-026   
     length 0.466345   
     axis 4.44383e-014 -90 -90   XYZ
    dof rx
    limits (0.0 90.0)
  end
  begin
     id 30
     name rthumb
     direction -0.707107 -6.34926e-011 0.707107   
     length 0.669581   
     axis -90 -45 5.4397e-014   XYZ
    dof rx rz
    limits (-45.0 45.0)
           (-45.0 45.0)
  end
:hierarchy
  begin
    root lhipjoint rhipjoint lowerback
    lhipjoint lfemur
    lfemur ltibia
    ltibia lfoot
    lfoot ltoes
    rhipjoint rfemur
    rfemur rtibia
    rtibia rfoot
    rfoot rtoes
    lowerback upperback
    upperback thorax
    thorax lowerneck lclavicle rclavicle
    lowerneck upperneck
    upperneck head
    lclavicle lhumerus
    lhumerus lradius
    lradius lwrist
    lwrist lhand lthumb
    lhand lfingers
    rclavicle rhumerus
    rhumerus rradius
    rradius rwrist
    rwrist rhand rthumb
    rhand rfingers
  end

#!OML:ASF H:\SkateBoarding\Project 1\Capture day 1\Session 1\Skater.ASF
:FULLY-SPECIFIED
:DEGREES
179
root 13.44 18.3713 42.3613 -8.89039 34.0714 -5.55869
lowerback 18.221 2.29038 -7.40329
upperback 2.77811 1.22707 -5.83028
thorax -7.23445 0.761091 -2.4077
lowerneck -16.5184 -4.55599 -0.885513
upperneck 39.7887 -9.23591 7.41694
head 18.1345 -2.66765 1.81912
rclavicle 1.07344e-014 0
rhumerus -33.8139 29.2096 -70.8261
rradius 65.1045
rwrist -16.9872
rhand -43.4141 -0.784568
rfingers 7.12502
rthumb -16.2571 -30.123
lclavicle 1.07344e-014 0
lhumerus -5.35692 -6.07848 35.1278
lradius 54.2564
lwrist 32.7243
lhand -34.1001 11.1765
lfingers 7.12502
lthumb -7.27619 41.0314
rfemur -38.1732 3.77645 20.9597
rtibia 38.8145
rfoot -10.3887 -10.7833
rtoes -10.1756
lfemur -26.1628 -4.7544 -2.82773
ltibia 43.1023
lfoot -30.587 16.3395
ltoes -22.2161
180
root 13.2786 18.3775 42.699 -8.98816 33.4183 -5.41396
lowerback 18.4331 2.51638 -7.25211
upperback 2.79122 1.52488 -5.87912
thorax -7.33451 0.901154 -2.62961
lowerneck -16.4804 -4.52075 -0.963653
upperneck 39.8597 -9.17985 7.48495
head 18.1734 -2.64492 1.88066
rclavicle 6.59965e-014 -5.08889e-014
rhumerus -32.8427 29.5107 -70.7074
rradius 64.2875
rwrist -16.7623
rhand -43.1877 -1.19502
rfingers 7.12502
rthumb -16.0391 -30.5511
lclavicle 6.59965e-014 -5.08889e-014
lhumerus -5.80777 -5.50443 34.5217
lradius 54.5538
lwrist 33.0696
lhand -34.4839 11.227
lfingers 7.12502
lthumb -7.64664 41.0687
rfemur -37.6081 3.12274 20.8314
rtibia 39.391
rfoot -11.4108 -10.8952
rtoes -10.0339
lfemur -26.0013 -5.3844 -2.84423
ltibia 42.9226
lfoot -29.9017 15.9914
ltoes -22.6763
181
root 13.1106 18.3871 43.038 -9.07946 32.6956 -5.32841
lowerback 18.3747 2.78607 -7.17577
upperback 2.8783 1.90722 -5.89429
thorax -7.20792 1.08084 -2.77688
lowerneck -16.3155 -4.45818 -0.914735
upperneck 39.8886 -9.09002 7.49343
head 18.1369 -2.60238 1.89888
rclavicle 1.62606e-013 -5.08889e-014
rhumerus -31.7583 29.6542 -70.5619
rradius 63.4668
rwrist -16.546
rhand -42.8725 -1.77255
rfingers 7.12502
rthumb -15.7356 -31.1528
lclavicle 1.62606e-013 -5.08889e-014
lhumerus -6.22661 -4.89906 33.9671
lradius 54.9179
lwrist 33.4149
lhand -34.9815 11.7951
lfingers 7.12502
lthumb -8.12691 41.6188
rfemur -37.0022 2.72484 20.7044
rtibia 39.7818
rfoot -12.5387 -10.9781
rtoes -9.86733
lfemur -25.8627 -5.73117 -2.83941
ltibia 42.8794
lfoot -29.2443 15.6079
ltoes -23.3968
182
root 12.9372 18.4014 43.3787 -9.17973 32.0217 -5.33946
lowerback 18.2803 3.06255 -7.0127
upperback 2.92616 2.31454 -5.92289
thorax -7.09954 1.27134 -2.99221
lowerneck -16.0893 -4.54803 -1.02262
upperneck 39.7951 -9.28579 7.77006
head 18.0711 -2.66817 2.00948
rclavicle 4.37326e-015 -2.54444e-014
rhumerus -30.7568 29.7245 -70.4809
rradius 62.5871
rwrist -16.4421
rhand -42.6523 -2.10476
rfingers 7.12502
rthumb -15.5235 -31.5016
lclavicle 4.37326e-015 -2.54444e-014
lhumerus -6.54202 -4.36006 33.5336
lradius 55.1359
lwrist 33.6386
lhand -35.326 12.0399
lfingers 7.12502
lthumb -8.45944 41.8504
rfemur -36.3176 2.45644 20.6178
rtibia 39.9668
rfoot -13.6667 -10.9555
rtoes -9.16589
lfemur -25.746 -5.94079 -2.77781
ltibia 42.9125
lfoot -28.6406 15.2157
ltoes -23.8494
183
root 12.7627 18.4113 43.7227 -9.06237 31.3407 -5.25771
lowerback 18.0149 3.36489 -7.00869
upperback 2.92037 2.73905 -5.94852
thorax -6.96127 1.47437 -3.10976
lowerneck -15.8984 -4.59378 -0.969189
upperneck 39.8601 -9.38373 7.81478
head 18.0681 -2.69451 2.00813
rclavicle 8.34896e-015 6.04305e-014
rhumerus -29.8823 29.6376 -70.4571
rradius 61.7353
rwrist -16.1509
rhand -42.3689 -2.39903
rfingers 7.12502
rthumb -15.2505 -31.8169
lclavicle 8.34896e-015 6.04305e-014
lhumerus -6.91896 -3.8165 33.1605
lradius 55.3352
lwrist 33.8789
lhand -35.6448 12.1285
lfingers 7.12502
lthumb -8.76701 41.9264
rfemur -35.6741 1.76142 20.707
rtibia 39.9586
rfoot -14.0998 -10.8587
rtoes -10.007
lfemur -25.7632 -6.03992 -2.80111
ltibia 43.0258
lfoot -28.3357 14.6508
ltoes -24.0927
184
root 12.5851 18.427 44.0689 -8.8966 30.6659 -5.18406
lowerback 17.5935 3.62077 -7.23455
upperback 2.99881 3.09384 -5.84165
thorax -6.66483 1.6477 -2.91916
lowerneck -15.9548 -4.60005 -1.05191
upperneck 39.9849 -9.36774 7.79885
head 18.1593 -2.69625 2.02326
rclavicle 2.94201e-014 -3.49861e-014
rhumerus -28.5776 29.85 -70.1655
rradius 60.7741
rwrist -16.0396
rhand -42.2087 -2.45646
rfingers 7.12502
rthumb -15.0963 -31.886
lclavicle 2.94201e-014 -3.49861e-014
lhumerus -7.57133 -2.95192 32.9522
lradius 55.6212
lwrist 34.0492
lhand -35.8842 12.2794
lfingers 7.12502
lthumb -8.99811 42.0675
rfemur -34.9982 1.18707 20.7286
rtibia 39.7379
rfoot -14.61 -10.6066
rtoes -9.98434
lfemur -25.7556 -6.08899 -2.83419
ltibia 43.2052
lfoot -28.2187 14.222
ltoes -24.5166
